<svg width="682" height="228" viewBox="0 0 682 228" fill="none" xmlns="http://www.w3.org/2000/svg">
<g clip-path="url(#clip0_1_2)">
<path d="M0.179993 2H21.42L34.16 20.53L46.9 2H68.14L43.01 37.42V70.14H25.3V37.42L0.179993 2Z" fill="#231F20"/>
<path d="M87.21 34.89C87.21 46.64 95.88 55.22 106.46 55.22C117.04 55.22 125.7 46.64 125.7 34.89C125.7 25.5 117.02 16.89 106.46 16.89C95.9 16.89 87.21 25.48 87.21 34.89ZM144.14 34.8C144.14 56.8 128.32 72.39 106.46 72.39C84.6 72.39 68.77 56.85 68.77 34.8C68.77 14.2 86.84 -0.259995 106.46 -0.259995C126.08 -0.259995 144.14 14.2 144.14 34.8Z" fill="#231F20"/>
<path d="M211.46 2V40.32C211.46 49.08 211.1 57.76 204.32 64.32C198.63 69.92 189.68 71.91 181.73 71.91C173.78 71.91 164.84 69.91 159.14 64.32C152.36 57.73 152 49.05 152 40.32V2H169.71V37.87C169.71 46.73 170.35 56.4 181.71 56.4C193.07 56.4 193.71 46.73 193.71 37.87V2H211.46Z" fill="#231F20"/>
<path d="M222.67 2H240.38L272.82 43.66H273.01V2H290.72V70.14H273.01L240.56 28.39H240.38V70.14H222.67V2Z" fill="#231F20"/>
<path d="M370.24 32.09C370.06 42.03 369.34 50.53 363.24 59.02C356.56 68.33 346.52 72.4 335.14 72.4C313.72 72.4 298.81 57.85 298.81 36.4C298.81 14.26 313.81 -0.290009 335.81 -0.290009C349.81 -0.290009 360.66 6.03999 366.54 18.77L349.73 25.83C347.29 19.35 342.14 15 335 15C323.34 15 317.29 26.12 317.29 36.51C317.29 47.09 323.61 57.84 335.29 57.84C342.97 57.84 348.84 53.84 349.57 46H335.09V32.09H370.24Z" fill="#231F20"/>
<path d="M418.05 55.13H439.28V70.14H400.33V2H418.05V55.13Z" fill="#231F20"/>
<path d="M462.78 2H445.07V70.14H462.78V2Z" fill="#231F20"/>
<path d="M489.35 34.89C489.35 46.64 498.02 55.22 508.6 55.22C519.18 55.22 527.84 46.64 527.84 34.89C527.84 25.5 519.17 16.89 508.6 16.89C498.03 16.89 489.35 25.48 489.35 34.89ZM546.28 34.8C546.28 56.8 530.46 72.39 508.6 72.39C486.74 72.39 470.91 56.85 470.91 34.8C470.91 14.2 488.99 -0.259995 508.6 -0.259995C528.21 -0.259995 546.28 14.2 546.28 34.8Z" fill="#231F20"/>
<path d="M554.51 2H572.22L604.66 43.66H604.84V2H622.55V70.14H604.84L572.4 28.39H572.22V70.14H554.51V2Z" fill="#231F20"/>
<path d="M671.53 19.53C668.261 16.7026 664.111 15.101 659.79 15C656.53 15 652.19 16.9 652.19 20.7C652.19 24.7 656.98 26.21 660.06 27.2L664.57 28.56C674.06 31.36 681.38 36.15 681.38 47.18C681.38 53.95 679.76 60.91 674.33 65.52C668.9 70.13 661.86 72 655 72C646.392 71.9275 638.014 69.2116 631 64.22L638.59 49.94C643.01 53.83 648.26 56.94 654.31 56.94C658.47 56.94 662.9 54.86 662.9 50.07C662.9 45.07 655.9 43.39 652.14 42.3C641.03 39.14 633.71 36.24 633.71 23.05C633.71 9.23001 643.56 0.190002 657.2 0.190002C664.656 0.323581 671.97 2.244 678.53 5.79L671.53 19.53Z" fill="#231F20"/>
<path d="M59.45 106.33C56.595 103.34 53.1708 100.951 49.3789 99.3042C45.5869 97.6573 41.5039 96.7855 37.37 96.74C21.24 96.74 8.19 110.74 8.19 126.69C8.19 142.64 21.34 156.64 37.57 156.64C45.72 156.64 53.69 152.79 59.45 147.04V157.04C53.1656 161.599 45.6139 164.082 37.85 164.14C17.41 164.14 0.119995 147.54 0.119995 126.99C0.156894 116.996 4.14417 107.421 11.2122 100.355C18.2803 93.289 27.8557 89.3043 37.85 89.27C45.6403 89.1615 53.2433 91.6606 59.45 96.37V106.33Z" fill="#231F20"/>
<path d="M77.5 126.69C77.5572 132.543 79.345 138.248 82.6383 143.087C85.9315 147.926 90.5829 151.683 96.0068 153.884C101.431 156.084 107.384 156.631 113.118 155.455C118.852 154.279 124.11 151.432 128.23 147.274C132.349 143.116 135.146 137.831 136.268 132.087C137.391 126.342 136.788 120.394 134.536 114.991C132.285 109.588 128.485 104.972 123.615 101.724C118.745 98.4764 113.023 96.7423 107.17 96.74C99.2737 96.8086 91.7245 99.9949 86.1671 105.605C80.6097 111.215 77.4944 118.793 77.5 126.69ZM144.89 126.78C144.93 134.251 142.75 141.566 138.628 147.797C134.506 154.028 128.627 158.895 121.735 161.781C114.844 164.667 107.251 165.442 99.9189 164.009C92.5866 162.575 85.8451 158.996 80.5488 153.726C75.2526 148.457 71.64 141.733 70.169 134.408C68.6981 127.084 69.4349 119.487 72.2862 112.581C75.1374 105.675 79.9747 99.7715 86.185 95.6179C92.3952 91.4644 99.6988 89.2481 107.17 89.25C112.115 89.2236 117.016 90.175 121.592 92.0494C126.168 93.9238 130.328 96.6842 133.834 100.172C137.339 103.66 140.12 107.806 142.018 112.372C143.915 116.939 144.891 121.835 144.89 126.78Z" fill="#231F20"/>
<path d="M165.24 86.37L191.54 147.13L217.95 86.37L232.63 162.88H224.38L215.07 113.92H214.88L191.54 165.85L168.31 113.92H168.12L158.81 162.88H150.56L165.24 86.37Z" fill="#231F20"/>
<path d="M249.91 123.71H255.29C264.22 123.71 271.8 121.02 271.8 110.66C271.8 98.85 262.3 97.99 252.89 97.99H249.89L249.91 123.71ZM249.91 162.88H241.85V90.5H253.75C259.99 90.5 266.42 90.69 271.75 94.34C274.34 96.2316 276.435 98.7202 277.857 101.594C279.279 104.469 279.987 107.644 279.92 110.85C279.957 113.788 279.358 116.699 278.164 119.383C276.969 122.067 275.208 124.461 273 126.4C268.11 130.4 261.87 131.2 255.82 131.2H249.96L249.91 162.88Z" fill="#231F20"/>
<path d="M290.14 90.5H327.67V97.99H298.2V119.49H326.8V126.97H298.2V155.39H327.67V162.88H290.14V90.5Z" fill="#231F20"/>
<path d="M360.6 162.88H352.53V97.99H335.06V90.5H378.26V97.99H360.6V162.88Z" fill="#231F20"/>
<path d="M394.78 90.5H386.71V162.88H394.78V90.5Z" fill="#231F20"/>
<path d="M428.66 162.88H420.6V97.99H403.13V90.5H446.32V97.99H428.66V162.88Z" fill="#231F20"/>
<path d="M462.83 90.5H454.77V162.88H462.83V90.5Z" fill="#231F20"/>
<path d="M481.93 126.69C481.985 132.546 483.772 138.255 487.066 143.097C490.359 147.939 495.012 151.698 500.438 153.901C505.865 156.104 511.821 156.652 517.558 155.475C523.295 154.299 528.555 151.451 532.677 147.291C536.798 143.131 539.596 137.844 540.719 132.096C541.841 126.348 541.237 120.397 538.984 114.992C536.73 109.587 532.927 104.969 528.054 101.722C523.181 98.4735 517.456 96.7403 511.6 96.74C503.704 96.8086 496.155 99.9949 490.597 105.605C485.04 111.215 481.924 118.793 481.93 126.69ZM549.33 126.78C549.37 134.251 547.19 141.565 543.069 147.796C538.947 154.027 533.068 158.894 526.178 161.78C519.287 164.667 511.695 165.442 504.363 164.009C497.031 162.576 490.289 158.999 484.992 153.73C479.696 148.461 476.082 141.739 474.61 134.415C473.138 127.09 473.874 119.494 476.723 112.588C479.573 105.682 484.409 99.7775 490.618 95.6228C496.827 91.4681 504.129 89.2501 511.6 89.25C516.546 89.2223 521.448 90.1727 526.025 92.0465C530.602 93.9203 534.764 96.6805 538.27 100.168C541.777 103.656 544.559 107.803 546.457 112.37C548.355 116.937 549.331 121.834 549.33 126.78Z" fill="#231F20"/>
<path d="M560.75 87.43L617.2 146.56V90.5H625.27V166.15L568.82 107.11V162.88H560.75V87.43Z" fill="#231F20"/>
<path d="M673.17 104.61C670.29 99.61 666.83 96.74 660.69 96.74C654.25 96.74 648.69 101.35 648.69 107.97C648.69 114.21 655.12 117.09 660.01 119.29L664.81 121.41C674.22 125.53 682.19 130.24 682.19 141.76C682.19 154.43 672.01 164.12 659.44 164.12C647.82 164.12 639.19 156.64 636.88 145.4L644.75 143.2C645.75 150.59 651.47 156.64 659.25 156.64C667.03 156.64 674.13 150.69 674.13 142.53C674.13 134.08 667.5 131.2 660.78 128.13L656.36 126.21C647.92 122.37 640.62 118.05 640.62 107.68C640.62 96.45 650.13 89.25 660.88 89.25C664.734 89.1984 668.526 90.2218 671.831 92.2054C675.136 94.1891 677.823 97.0544 679.59 100.48L673.17 104.61Z" fill="#231F20"/>
<path d="M681.64 175.88H3.66V178.18H681.64V175.88Z" fill="#231F20"/>
<path d="M5.17001 195.73L13.52 216.66L22 195.73H27L13.45 228.21L0.200012 195.73H5.17001Z" fill="#231F20"/>
<path d="M36.3 195.73V225.94H31.74V195.73H36.3Z" fill="#231F20"/>
<path d="M61.23 200H49.12V207.26H60.88V211.55H49.12V221.64H61.23V225.93H44.56V195.73H61.23V200Z" fill="#231F20"/>
<path d="M76.55 200V225.93H72V200H65.06V195.72H83.49V200H76.55Z" fill="#231F20"/>
<path d="M88.55 225.94V193.67L110.55 216.72V195.72H115.11V227.72L93.11 204.72V225.87L88.55 225.94Z" fill="#231F20"/>
<path d="M141.12 218.6H128.19L124.83 225.94H119.92L134.86 193.83L149.29 225.94H144.29L141.12 218.6ZM139.27 214.31L134.78 204L130.09 214.27L139.27 214.31Z" fill="#231F20"/>
<path d="M153 225.94L159.35 193.46L169.72 216.94L180.46 193.46L186.18 225.94H181.5L178.6 207.7L169.6 227.33L161 207.68L157.75 225.94H153Z" fill="#231F20"/>
</g>
<defs>
<clipPath id="clip0_1_2">
<rect width="1790.1" height="271.21" fill="white" transform="translate(-405 -43)"/>
</clipPath>
</defs>
</svg>
